<?xml version="1.0" standalone="no"?>
<!DOCTYPE svg PUBLIC "-//W3C//DTD SVG 20010904//EN"
 "http://www.w3.org/TR/2001/REC-SVG-20010904/DTD/svg10.dtd">
<svg version="1.0" xmlns="http://www.w3.org/2000/svg"
 width="700.000000pt" height="700.000000pt" viewBox="0 0 700.000000 700.000000"
 preserveAspectRatio="xMidYMid meet">
<metadata>
Created by potrace 1.11, written by Peter Selinger 2001-2013
</metadata>
<g transform="translate(0.000000,700.000000) scale(0.100000,-0.100000)"
fill="#000000" stroke="none">
<path d="M10 3500 l0 -3500 3490 0 3490 0 0 3500 0 3500 -3490 0 -3490 0 0
-3500z m3731 3109 c337 -26 697 -115 981 -240 51 -22 110 -48 131 -56 20 -9
37 -19 37 -22 0 -3 -74 -101 -163 -216 -803 -1041 -1579 -2223 -2027 -3088
-25 -48 -47 -87 -50 -87 -3 0 -18 62 -33 138 -148 730 -439 1686 -738 2416
l-70 174 -217 -105 c-119 -58 -253 -122 -297 -143 -44 -21 -156 -74 -249 -119
-92 -45 -170 -81 -173 -81 -9 0 112 167 204 283 638 793 1646 1227 2664 1146z
m2211 -1182 c680 -852 854 -2038 451 -3067 -371 -945 -1200 -1664 -2186 -1895
-314 -74 -646 -100 -952 -75 -152 13 -345 41 -345 51 0 4 33 108 74 231 450
1360 1176 2651 2431 4323 400 532 417 554 434 541 8 -6 50 -55 93 -109z
m-5106 -662 c290 -757 486 -1435 638 -2210 93 -474 149 -897 201 -1519 l7 -78
-39 28 c-329 244 -626 572 -834 921 -492 828 -574 1834 -223 2732 60 154 154
345 165 334 5 -5 43 -98 85 -208z"/>
</g>
</svg>
